# xmcd
#
# Track frame offsets:
#	150
#	13192
#	28192
#	44671
#	59328
#	76453
#	95675
#	109162
#	124346
#	135478
#	163360
#	184797
#	208387
#	221296
#	238108
#
# Disc length: 3434 seconds
#
# Revision: 0
# Processed by: cddbd v1.5.1PL0 Copyright (c) Steve Scherf et al.
# Submitted via: audiograbber 1.81.02
#
DISCID=e50d680f
DTITLE=Kiss - MTV Unplugged
DYEAR=1996
DGENRE=Rock
TTITLE0=Comin' Home
TTITLE1=Plaster Caster
TTITLE2=Goin' Blind
TTITLE3=Do You Love Me
TTITLE4=Domino
TTITLE5=Sure Know Something
TTITLE6=A World Without Heroes
TTITLE7=Rock Bottom
TTITLE8=See You Tonight
TTITLE9=I Still Love You
TTITLE10=Every Time I Look At You
TTITLE11=2,000 Man
TTITLE12=Beth
TTITLE13=Nothin' To Lose
TTITLE14=Rock And Roll All Nite
EXTD=
EXTT0=
EXTT1=
EXTT2=
EXTT3=
EXTT4=
EXTT5=
EXTT6=
EXTT7=
EXTT8=
EXTT9=
EXTT10=
EXTT11=
EXTT12=
EXTT13=
EXTT14=
PLAYORDER=
